# xmcd CD database file
#
# Track frame offsets:
#	150
#	25012
#	49807
#	68570
#	92192
#	112155
#	136842
#	160545
#	187092
#	208397
#	233365
#	266040
#
# Disc length: 3765 seconds
#
# Revision: 8
# Processed by: cddbd v1.5.1PL0 Copyright (c) Steve Scherf et al.
# Submitted via: CDex 1.51
#
DISCID=a40eb30c
DTITLE=松山千春 - 季節の旅人〜春・夏・秋・冬〜冬（disc4）
DYEAR=2001
DGENRE=Folk
TTITLE0=雪化粧
TTITLE1=さよなら
TTITLE2=北風
TTITLE3=流浪
TTITLE4=真冬の青空
TTITLE5=雪
TTITLE6=生命
TTITLE7=春夏秋冬
TTITLE8=こんな夜は
TTITLE9=クリスマス
TTITLE10=生きがい
TTITLE11=大空と大地の中で
EXTD=YEAR: 2001
EXTT0=
EXTT1=
EXTT2=
EXTT3=
EXTT4=
EXTT5=
EXTT6=
EXTT7=
EXTT8=
EXTT9=
EXTT10=
EXTT11=
PLAYORDER=
